<?xml version="1.0" standalone="no"?>
<!DOCTYPE svg PUBLIC "-//W3C//DTD SVG 20010904//EN"
 "http://www.w3.org/TR/2001/REC-SVG-20010904/DTD/svg10.dtd">
<svg version="1.0" xmlns="http://www.w3.org/2000/svg"
 width="260.000000pt" height="260.000000pt" viewBox="0 0 260.000000 260.000000"
 preserveAspectRatio="xMidYMid meet">
<metadata>
Created by potrace 1.11, written by Peter Selinger 2001-2013
</metadata>
<g transform="translate(0.000000,260.000000) scale(0.100000,-0.100000)"
fill="#000000" stroke="none">
<path d="M1150 2593 c-322 -49 -549 -161 -766 -377 -263 -264 -388 -575 -379
-946 2 -80 6 -156 9 -170 3 -14 11 -50 17 -80 29 -141 100 -307 190 -445 65
-99 249 -284 347 -349 225 -149 436 -216 697 -221 207 -4 351 21 533 96 193
78 338 186 507 374 127 141 243 401 279 626 14 83 15 332 2 394 -4 17 -11 53
-16 80 -29 143 -102 314 -192 450 -64 98 -248 284 -343 347 -135 90 -318 169
-455 197 -30 6 -68 13 -85 17 -34 7 -307 13 -345 7z m370 -177 c349 -75 631
-289 792 -602 48 -93 92 -218 103 -294 4 -25 9 -48 11 -52 12 -19 11 -238 -1
-326 -76 -541 -533 -956 -1075 -977 -151 -6 -269 11 -404 56 -293 98 -529 304
-669 584 -34 68 -81 205 -92 265 -36 206 -24 407 36 591 28 85 100 225 158
303 182 250 453 416 751 460 108 16 293 12 390 -8z"/>
<path d="M1100 2259 c-402 -88 -688 -384 -767 -794 -15 -77 -8 -295 11 -375
46 -186 135 -348 261 -470 l46 -45 54 60 53 60 -53 56 c-199 209 -270 516
-184 794 75 245 267 442 512 526 145 50 300 58 456 23 71 -16 211 -78 267
-119 21 -15 23 -13 69 50 26 37 45 68 43 69 -13 12 -119 75 -148 88 -90 41
-133 55 -255 85 -11 2 -78 6 -150 8 -99 2 -151 -2 -215 -16z"/>
<path d="M1160 1934 c-293 -65 -509 -333 -510 -632 l0 -44 83 6 c45 2 82 5 82
5 0 1 0 17 -1 37 -3 103 49 236 125 318 187 201 486 217 685 36 165 -152 208
-375 110 -576 -71 -144 -223 -252 -379 -268 -22 -2 -43 -5 -47 -5 -5 -1 -8
-38 -8 -82 l0 -81 67 7 c325 35 569 299 579 625 8 252 -118 471 -340 591 -132
71 -302 95 -446 63z"/>
<path d="M1137 1623 c-34 -59 -45 -485 -16 -588 14 -49 15 -50 49 -47 72 5
307 137 428 239 79 67 80 74 30 129 -105 114 -466 310 -491 267z"/>
<path d="M2032 962 c-129 -267 -385 -444 -672 -466 -27 -2 -53 -6 -57 -9 -5
-3 -8 -38 -8 -79 l1 -73 75 2 c41 1 118 14 172 27 223 57 426 200 558 394 57
83 112 199 99 207 -5 3 -38 17 -75 30 l-65 25 -28 -58z"/>
</g>
</svg>
