<svg width="226" height="44" xmlns="http://www.w3.org/2000/svg">
    <g fill="none" fill-rule="evenodd">
        <path d="M21.805 43.13c11.66 0 21.112-9.46 21.112-21.13 0-11.67-9.452-21.13-21.112-21.13C10.145.87.692 10.33.692 22c0 11.67 9.452 21.13 21.113 21.13zm0-1.837C11.158 41.293 2.528 32.655 2.528 22s8.63-19.293 19.277-19.293C32.45 2.707 41.08 11.345 41.08 22s-8.63 19.293-19.276 19.293z" fill="#FF8A3C" fill-rule="nonzero"/>
        <path d="M37.517 14.224a17.36 17.36 0 011.838 7.798c0 9.632-7.816 17.441-17.456 17.441a17.57 17.57 0 01-3.086-.272l.322-1.807c.906.161 1.83.243 2.764.243 8.626 0 15.618-6.987 15.618-15.605 0-2.456-.568-4.829-1.643-6.976zm-15.712-9.68v1.838a15.609 15.609 0 00-14.451 9.712l-1.7-.696a17.444 17.444 0 0116.15-10.854z" fill="#FF5D50"/>
        <path d="M27.202 9.319A13.783 13.783 0 0135.574 22c0 6.703-4.816 12.402-11.336 13.566l-.323-1.809C29.564 32.75 33.738 27.81 33.738 22c0-4.83-2.892-9.128-7.256-10.991zm-5.397-1.1v1.838C15.214 10.057 9.87 15.404 9.87 22c0 4.104 2.084 7.851 5.465 10.038l-.996 1.544A13.77 13.77 0 018.035 22c0-7.61 6.165-13.78 13.77-13.78z" fill="#F53568"/>
        <path d="M21.805 11.894c-5.577 0-10.098 4.525-10.098 10.106 0 5.581 4.52 10.106 10.098 10.106 5.576 0 10.097-4.525 10.097-10.106h-1.836c0 4.567-3.699 8.268-8.261 8.268-4.563 0-8.262-3.701-8.262-8.268s3.699-8.268 8.262-8.268v-1.838z" fill="#7130CC"/>
        <path d="M27.465 22.694s-1.257 1.297-3.493 2.74c-2.236 1.444-3.745 1.98-3.745 1.98-.67.29-1.29-.088-1.38-.83 0 0-.255-1.482-.255-4.588s.256-4.616.256-4.616c.084-.742.697-1.09 1.357-.778 0 0 1.398.579 3.767 2.108 2.369 1.53 3.468 2.59 3.468 2.59a.922.922 0 01.025 1.394z" fill="#FFF"/>
        <path d="M163.439 18.324c2.957 0 4.774 2.16 4.774 5.222 0 .06 0 .275-.019.471h-8.06c.019 2.278 1.526 3.652 3.614 3.652 1.701 0 2.648-.903 3.132-1.59l1.005.746c-.56.962-1.875 2.218-4.156 2.218-3.054 0-5.161-2.179-5.161-5.32 0-3.26 2.203-5.4 4.87-5.4zm32.765 0c3.035 0 5.239 2.297 5.239 5.36 0 3.062-2.243 5.36-5.258 5.36-3.016 0-5.239-2.258-5.239-5.36 0-3.083 2.262-5.36 5.258-5.36zm-75.708.626c3.203 0 5.457 2.118 5.457 5.02 0 2.884-2.311 5.038-5.457 5.038-3.164 0-5.4-2.118-5.4-5.002 0-2.902 2.331-5.056 5.4-5.056zm-10.307-3.194c1.648 0 2.918.456 3.865 1.077l-.91 2.738c-.7-.457-1.704-.895-2.841-.895-2.426 0-3.752 1.698-3.752 3.688 0 1.99 1.326 3.723 3.752 3.723 1.137 0 2.198-.438 2.899-.894l.91 2.738c-.948.62-2.275 1.077-3.923 1.077-4.282 0-7.01-2.884-7.01-6.644 0-3.742 2.88-6.608 7.01-6.608zM96.717 18.95c3.202 0 5.457 2.118 5.457 5.02 0 2.884-2.311 5.038-5.457 5.038-3.164 0-5.4-2.118-5.4-5.002 0-2.902 2.33-5.056 5.4-5.056zm-11.14 0c3.163 0 4.888 1.953 4.888 5.22 0 .183 0 .384-.02.603h-6.517c.076.858.928 1.588 2.103 1.588 1.194 0 1.895-.748 2.084-1.022L90.2 26.89c-.284.566-1.648 2.118-4.225 2.118-3.278 0-5.286-2.173-5.286-5.002 0-2.81 1.97-5.056 4.888-5.056zm-6.31-3.377V28.77H76.31v-.748c-.284.31-1.232.986-2.69.986-2.862 0-4.87-2.081-4.87-5.02 0-2.975 1.819-5.038 4.699-5.038 1.516 0 2.444.73 2.652.968v-4.345h3.165zm92.523.866v2.14h2.203v1.316h-2.203v5.261c0 1.905.54 2.356 1.855 2.356.194 0 .426-.02.426-.02v1.375s-.406.059-.928.059c-2.01 0-2.88-1.335-2.88-3.632v-5.4h-1.18V18.58h1.18v-2.14h1.527zm-24.415-1.394l7.462 11.23v-11.23h1.546v13.743h-1.546l-7.462-11.19v11.19h-1.566V15.045h1.566zm60.524 3.279v1.55c-2.3 0-2.977 1.846-2.977 4.026v4.888h-1.527V18.58h1.508v1.708c.348-1.02 1.469-1.963 2.996-1.963zm3.228-3.73v8.363l4.098-4.378h1.933l-4.33 4.575 4.582 5.634h-1.972l-4.31-5.438v5.438H209.6V14.594h1.527zm-34.795 3.985l2.63 8.402c.006-.02.139-.413 2.706-8.402h1.507c2.508 7.86 2.675 8.368 2.686 8.4v.002l2.65-8.402h1.662l-3.402 10.21h-1.682l-2.668-8.11-2.687 8.11h-1.681l-3.383-10.21h1.662zm-38.31.371c3.108 0 3.411 2.556 3.411 4.509v5.311h-3.164v-5.713c0-.894-.55-1.369-1.307-1.369-.872 0-1.364.603-1.364 1.37v5.712h-3.165v-9.582h3.089v.985c.379-.566 1.25-1.223 2.5-1.223zm-7.502.238v9.582h-3.165v-9.582h3.165zm-63.19 0v9.582h-3.164v-9.582h3.164zm-13.813-3.195l2.994 9.09 2.993-9.09h3.563L58.273 28.77h-3.524l-4.794-12.777h3.562zm142.668 3.745c-2.165 0-3.673 1.708-3.673 3.946 0 2.297 1.527 3.946 3.673 3.946 2.165 0 3.711-1.669 3.711-3.946 0-2.258-1.546-3.946-3.711-3.946zM74.056 21.633c-1.288 0-2.14.968-2.14 2.373 0 1.424.87 2.337 2.14 2.337 1.364 0 2.141-1.059 2.141-2.337 0-1.515-.89-2.373-2.14-2.373zm22.661 0c-1.307 0-2.235.968-2.235 2.373 0 1.387.947 2.318 2.235 2.318 1.308 0 2.293-.985 2.293-2.354 0-1.406-1.004-2.337-2.293-2.337zm23.78 0c-1.308 0-2.236.968-2.236 2.373 0 1.387.947 2.318 2.235 2.318 1.308 0 2.293-.985 2.293-2.354 0-1.406-1.004-2.337-2.293-2.337zm42.942-1.974c-1.643 0-3.112 1.276-3.228 3.2h6.437c-.097-2.12-1.547-3.2-3.21-3.2zm-77.806 1.755c-1.042 0-1.535.749-1.61 1.424h3.22c-.037-.767-.625-1.424-1.61-1.424zM128.91 15.3c1.004 0 1.781.693 1.781 1.66 0 .95-.777 1.643-1.78 1.643-1.005 0-1.763-.693-1.763-1.642 0-.968.758-1.661 1.762-1.661zm-63.19 0c1.004 0 1.781.693 1.781 1.66 0 .95-.777 1.643-1.78 1.643-1.005 0-1.763-.693-1.763-1.642 0-.968.758-1.661 1.762-1.661zm157.016-.93l.963 2.445.968-2.445h1.229v3.864h-.908V15.7l-.852 2.219h-.868l-.853-2.22v2.535h-.907V14.37h1.228zm-1.665 0v.844h-.836v3.02h-.946v-3.02h-.835v-.844h2.617z" fill="#FFF" fill-rule="nonzero"/>
    </g>
</svg>